<svg xmlns="http://www.w3.org/2000/svg" width="248.667" height="35"><path fill="#d15d27" d="M21.813 0h226.854v35H21.813z"/><path fill="#e36d25" d="M0 0h112.5v35H0z"/><path d="M131.141 22l-1.116-2.269H128.7V22h-2.5v-8.412h3.924a3.967 3.967 0 012.622.78 2.722 2.722 0 01.931 2.208 3.324 3.324 0 01-.366 1.6 2.716 2.716 0 01-1.05 1.074l1.7 2.748zm-2.441-4.188h1.428a1.192 1.192 0 00.87-.3 1.157 1.157 0 00.307-.864A1.12 1.12 0 00131 15.8a1.207 1.207 0 00-.87-.294h-1.43zm8.848-4.224h6.876v1.92h-4.38v1.32h3.972v1.92h-3.972v1.332h4.5V22h-7zm15.408 2.04a4.265 4.265 0 00-1.32-.276.9.9 0 00-.51.126.414.414 0 00-.186.366.572.572 0 00.359.522 6.4 6.4 0 001.141.4 11.024 11.024 0 011.464.51 2.7 2.7 0 011 .786 2.154 2.154 0 01.426 1.392 2.372 2.372 0 01-.462 1.481 2.774 2.774 0 01-1.248.906 4.9 4.9 0 01-1.758.3 6.739 6.739 0 01-2.166-.366 6.008 6.008 0 01-1.878-1l.936-1.9a5.6 5.6 0 001.554.93 4.279 4.279 0 001.578.378 1.122 1.122 0 00.637-.155.509.509 0 00.228-.444.58.58 0 00-.372-.534 6.322 6.322 0 00-1.152-.39 10.522 10.522 0 01-1.451-.474 2.568 2.568 0 01-1-.762 2.081 2.081 0 01-.42-1.356 2.385 2.385 0 01.432-1.422 2.729 2.729 0 011.218-.93 4.771 4.771 0 011.83-.324 6.76 6.76 0 011.884.27 6.255 6.255 0 011.633.714l-.925 1.92a8.036 8.036 0 00-1.472-.668zm5.928-2.04h6.876v1.92h-4.38v1.32h3.972v1.92h-3.972v1.332h4.5V22h-7zm16.536 0h2.28V22h-2.124l-3.564-4.68V22h-2.292v-8.412h2.137l3.563 4.692zm5.7 0h7.392v1.992h-2.447V22h-2.509v-6.42h-2.436zm10.812 0h2.676l2.257 4.668 2.243-4.668h2.677V22h-2.2v-4.992l-1.92 4.164h-1.62l-1.92-4.164V22h-2.2zm13.908 0h6.876v1.92h-4.38v1.32h3.972v1.92h-3.972v1.332h4.5V22h-7zm16.536 0h2.28V22h-2.124l-3.564-4.68V22h-2.292v-8.412h2.137l3.563 4.692zm5.699 0h7.393v1.992h-2.448V22h-2.508v-6.42h-2.437zM13.867 22v-8.531h2.924a3.57 3.57 0 012.2.58 2.043 2.043 0 01.756 1.729 1.842 1.842 0 01-.316 1.055 2.037 2.037 0 01-.926.727 1.883 1.883 0 011.069.706 2.056 2.056 0 01.378 1.245 2.271 2.271 0 01-.771 1.846 3.35 3.35 0 01-2.202.643zm1.482-4.939H16.8a1.68 1.68 0 001.081-.313 1.074 1.074 0 00.39-.888 1.089 1.089 0 00-.36-.914 1.82 1.82 0 00-1.122-.281H15.35zm0 1.09V20.8H17a1.6 1.6 0 001.09-.344 1.206 1.206 0 00.393-.957 1.215 1.215 0 00-1.359-1.354zm14.969-4.682v5.7a2.771 2.771 0 01-.87 2.153 3.305 3.305 0 01-2.317.794 3.329 3.329 0 01-2.326-.782 2.784 2.784 0 01-.861-2.171v-5.7h1.477v5.7a1.809 1.809 0 00.434 1.3 1.7 1.7 0 001.277.45q1.711 0 1.711-1.8v-5.644zM36.1 22h-1.473v-8.531H36.1zm5.949-1.2h3.873V22h-5.356v-8.531h1.482zm12.613-6.136H52V22h-1.469v-7.336h-2.637v-1.2h6.768zm15.727 5.227l1.311-6.422h1.471L71.2 22h-1.415l-1.623-6.229L66.5 22h-1.42l-1.969-8.531h1.471l1.324 6.41 1.629-6.41h1.242zM78.46 22h-1.476v-8.531h1.476zm10.457-7.336h-2.66V22h-1.471v-7.336h-2.637v-1.2h6.768zM99.449 22h-1.476v-3.785h-3.815V22h-1.482v-8.531h1.482v3.551h3.814v-3.551h1.477z" fill="#fff"/></svg>